<svg xmlns="http://www.w3.org/2000/svg" width="274" height="433" viewBox="0 0 274 433">
<g>
<path d="M 230.50 325.96 C223.91,326.90 53.14,327.29 48.50,326.37 C47.40,326.16 44.03,325.48 41.00,324.87 C20.90,320.82 9.76,302.63 15.51,283.28 C17.35,277.08 23.73,269.71 30.87,265.50 C34.46,263.39 35.79,262.06 35.35,261.00 C31.18,250.92 30.42,237.80 33.43,227.55 C36.95,215.53 45.22,202.52 56.19,191.76 L 62.04 186.01 L 51.54 175.90 C40.57,165.33 36.33,158.91 35.31,151.28 C34.63,146.20 36.38,142.30 43.86,132.24 C47.24,127.70 50.00,123.60 50.00,123.12 C50.00,122.64 48.83,119.61 47.40,116.37 C42.80,105.98 39.87,91.77 39.67,79.00 C39.47,65.30 40.23,61.07 43.63,57.03 C46.05,54.15 46.56,54.00 53.66,54.00 C64.67,54.00 73.15,57.05 91.97,67.75 C94.46,69.17 97.67,71.40 99.10,72.71 L 101.70 75.09 L 106.71 73.11 C109.47,72.03 115.26,70.41 119.58,69.51 C123.91,68.62 127.53,67.80 127.63,67.70 C127.73,67.59 125.99,64.44 123.76,60.69 C115.23,46.39 118.84,33.64 132.85,28.64 C137.48,26.99 137.98,26.54 137.28,24.64 C136.85,23.46 136.50,18.90 136.50,14.50 C136.50,6.63 136.54,6.50 139.00,6.50 L 141.50 6.50 L 141.50 27.17 L 145.44 28.53 C158.15,32.92 162.37,45.45 155.63,58.74 C154.20,61.56 152.58,64.14 152.02,64.49 C149.27,66.19 151.50,67.77 158.90,69.36 C163.25,70.29 169.21,71.88 172.15,72.88 L 177.50 74.71 L 183.08 70.93 C191.49,65.24 206.81,57.36 212.93,55.58 C220.01,53.52 230.84,53.50 233.75,55.54 C238.77,59.05 240.29,73.86 237.52,92.23 C235.91,102.92 234.09,109.54 230.37,118.22 L 227.92 123.94 L 232.96 130.36 C239.55,138.75 243.41,147.11 242.70,151.48 C241.25,160.39 230.30,175.36 220.04,182.48 L 215.89 185.35 L 223.24 192.92 C231.99,201.95 235.86,207.39 240.53,217.23 C246.95,230.74 248.40,245.94 244.38,257.35 C243.62,259.50 243.00,261.60 243.00,262.03 C243.00,262.46 245.40,264.17 248.34,265.83 C264.33,274.85 269.35,295.17 259.42,310.69 C253.99,319.19 245.10,323.88 230.50,325.96 ZM 122.97 197.90 C135.22,199.09 139.15,199.10 151.67,197.99 C172.36,196.16 195.50,188.90 209.50,179.85 C222.92,171.17 235.00,157.02 235.00,149.98 C235.00,147.09 232.53,142.46 227.53,136.00 C225.18,132.98 220.22,125.55 216.48,119.50 C208.13,105.96 202.58,99.35 193.75,92.44 C179.61,81.38 164.37,76.10 144.22,75.28 C128.09,74.62 118.91,75.92 106.17,80.67 C86.61,87.95 73.47,99.59 60.08,121.45 C57.56,125.57 52.86,132.57 49.62,137.01 C42.07,147.38 41.39,151.33 45.98,158.21 C59.60,178.57 91.11,194.82 122.97,197.90 ZM 135.51 414.96 C134.93,416.79 134.05,417.00 126.93,417.00 L 119.00 417.00 L 119.00 347.74 L 138.25 348.25 C150.15,348.57 158.84,349.26 161.00,350.05 C167.16,352.31 170.79,355.82 172.96,361.63 C176.75,371.74 174.94,381.01 167.87,387.69 C162.99,392.30 159.85,393.24 147.04,393.90 L 135.57 394.50 L 135.87 403.71 C136.03,408.77 135.87,413.83 135.51,414.96 ZM 63.10 275.95 C72.54,280.31 72.61,280.28 73.27,271.56 C73.68,266.19 74.68,262.37 76.88,257.76 C80.56,250.04 80.19,247.84 74.76,245.39 C70.87,243.64 65.00,237.07 65.00,234.47 C65.00,233.80 65.66,232.70 66.46,232.03 C67.62,231.07 68.59,231.15 71.12,232.41 C75.34,234.52 76.00,234.42 76.00,231.73 C76.00,227.23 80.21,214.39 84.22,206.68 C87.56,200.26 88.06,198.65 86.91,197.92 C86.13,197.43 85.12,197.02 84.65,197.02 C84.19,197.01 80.44,195.31 76.32,193.25 L 68.83 189.50 L 61.07 197.56 C48.81,210.28 43.03,220.20 40.45,232.95 C38.35,243.32 39.03,249.45 43.22,257.84 C47.02,265.43 53.88,271.68 63.10,275.95 ZM 205.78 272.25 C206.13,277.11 206.66,279.00 207.66,279.00 C208.42,279.00 212.26,277.38 216.18,275.41 C224.55,271.19 233.24,262.98 236.05,256.61 C243.33,240.17 235.76,217.31 216.30,196.99 L 209.50 189.89 L 201.26 193.69 C196.73,195.79 193.02,197.96 193.01,198.52 C193.01,199.08 194.16,201.25 195.59,203.34 C199.10,208.51 203.10,220.24 203.75,227.28 C204.04,230.46 204.61,233.26 205.02,233.51 C205.43,233.76 207.20,233.25 208.96,232.37 C212.90,230.40 214.57,231.61 213.55,235.68 C212.76,238.82 204.78,247.00 202.50,247.00 C199.70,247.00 199.72,251.65 202.55,258.69 C204.17,262.73 205.49,268.25 205.78,272.25 ZM 21.00 402.50 L 21.00 418.00 L 13.67 418.00 C9.63,418.00 6.03,417.70 5.67,417.33 C5.30,416.97 5.00,400.99 5.00,381.83 L 5.00 347.00 L 21.00 347.00 L 21.00 362.08 C21.00,370.38 21.40,377.02 21.88,376.83 C22.37,376.65 28.07,370.09 34.56,362.25 L 46.36 348.00 L 54.23 348.00 C60.79,348.00 61.96,348.24 61.29,349.44 C60.85,350.23 54.94,357.23 48.15,364.99 C41.37,372.74 36.05,379.63 36.33,380.30 C36.61,380.96 43.17,389.13 50.92,398.45 C58.67,407.77 64.63,415.77 64.16,416.24 C63.69,416.71 59.77,416.96 55.45,416.79 L 47.60 416.50 L 35.05 401.82 C28.15,393.75 22.16,387.11 21.75,387.07 C21.34,387.03 21.00,393.98 21.00,402.50 ZM 42.75 316.91 C47.76,318.10 111.00,318.27 111.00,317.10 C111.00,316.60 107.74,315.22 103.75,314.02 C93.39,310.91 82.94,305.68 78.97,301.61 C77.08,299.68 74.86,296.00 74.02,293.43 C72.58,289.02 72.16,288.63 66.45,286.50 C58.03,283.36 49.46,278.35 44.64,273.77 C40.12,269.48 38.64,269.41 33.03,273.22 C21.71,280.93 18.87,295.65 26.49,307.16 C29.14,311.17 36.11,315.35 42.75,316.91 ZM 170.00 317.14 C170.00,317.77 181.79,318.00 202.75,317.77 C239.21,317.37 241.04,317.08 248.79,310.45 C255.13,305.02 257.56,295.17 254.92,285.65 C253.57,280.80 247.27,273.88 242.08,271.53 L 238.11 269.74 L 232.31 274.91 C226.85,279.78 217.00,285.23 208.87,287.89 C205.74,288.91 205.16,289.60 204.64,292.87 C204.30,294.95 203.01,298.17 201.77,300.01 C199.04,304.04 188.62,309.92 177.75,313.57 C173.49,315.00 170.00,316.61 170.00,317.14 ZM 141.82 293.55 L 142.00 312.09 L 145.75 311.41 C151.51,310.36 170.96,305.33 176.48,303.46 C183.79,300.97 191.61,297.09 193.50,295.00 C196.25,291.97 197.46,279.16 195.97,268.82 C195.28,263.97 194.38,260.00 193.98,260.00 C193.58,260.00 191.49,260.62 189.33,261.38 C185.04,262.90 157.07,268.48 147.50,269.73 C142.15,270.43 141.51,270.76 141.57,272.76 C141.61,273.99 141.72,283.35 141.82,293.55 ZM 125.00 310.05 C126.12,310.31 127.12,310.57 128.03,310.80 C131.31,311.64 133.25,312.13 134.40,311.39 C136.09,310.31 136.07,306.58 136.02,297.37 C136.01,295.64 136.00,293.71 136.00,291.57 C136.00,289.48 136.01,287.60 136.02,285.90 C136.06,276.33 136.08,272.66 134.27,271.02 C132.82,269.72 130.20,269.71 125.50,269.04 C121.65,268.48 110.88,266.22 101.57,264.01 C92.26,261.81 84.37,260.00 84.04,260.00 C83.70,260.00 83.37,260.79 83.30,261.75 C83.22,262.71 82.73,266.20 82.20,269.50 C81.01,276.96 81.78,290.79 83.55,293.62 C86.74,298.73 100.97,304.37 125.00,310.05 ZM 274.00 348.00 L 274.00 360.00 L 256.00 360.00 L 256.00 388.33 C256.00,403.92 255.81,416.85 255.59,417.08 C255.36,417.31 251.76,417.35 247.59,417.17 L 240.00 416.84 L 240.00 360.00 L 230.06 360.00 C224.22,360.00 219.85,359.57 219.47,358.95 C219.12,358.38 219.13,355.68 219.51,352.95 L 220.19 348.00 L 274.00 348.00 ZM 205.42 414.75 C205.49,416.25 204.39,416.54 197.75,416.79 L 190.00 417.08 L 190.00 405.20 C190.00,398.67 189.70,383.13 189.34,370.66 L 188.68 348.00 L 205.00 348.00 L 205.17 380.50 C205.26,398.38 205.37,413.79 205.42,414.75 ZM 99.00 348.00 L 99.00 417.00 L 84.00 417.00 L 84.00 348.00 ZM 220.59 112.16 C221.43,113.79 222.61,114.96 223.21,114.76 C226.56,113.65 232.53,84.20 231.78,72.47 C230.99,60.09 228.62,58.38 216.59,61.52 C207.13,63.98 186.12,75.05 186.04,77.62 C186.00,78.66 193.17,84.00 194.61,84.00 C194.96,84.00 198.24,81.78 201.90,79.08 C209.71,73.28 222.49,66.57 223.97,67.48 C226.46,69.02 224.15,93.92 220.51,104.85 C219.22,108.70 219.23,109.55 220.59,112.16 ZM 155.70 180.04 C152.95,181.72 150.62,181.99 139.13,182.00 L 125.76 182.00 L 121.93 178.17 C119.08,175.32 118.24,173.78 118.67,172.17 C119.44,169.20 123.05,169.36 126.00,172.50 C127.71,174.32 129.39,175.00 132.17,175.00 C135.98,175.00 136.00,174.98 136.00,170.93 C136.00,167.58 135.39,166.29 132.50,163.56 C128.14,159.46 127.70,154.57 131.36,151.13 C133.44,149.18 134.63,148.94 141.01,149.20 C147.61,149.47 148.48,149.76 150.33,152.23 C153.17,156.05 151.78,161.66 147.29,164.48 C144.51,166.23 144.07,167.07 144.04,170.75 L 144.00 175.00 L 147.92 175.00 C150.65,175.00 152.75,174.24 154.82,172.50 C158.18,169.67 160.79,169.29 161.64,171.51 C162.43,173.57 159.56,177.69 155.70,180.04 ZM 53.12 112.82 C53.86,114.77 54.30,114.99 55.48,114.02 C58.07,111.87 58.07,109.48 55.52,98.67 C52.90,87.59 51.96,68.76 53.96,67.52 C55.62,66.50 68.80,73.88 79.66,81.91 L 82.78 84.21 L 87.39 81.51 C89.93,80.03 92.00,78.46 92.00,78.02 C92.00,76.61 85.46,72.21 77.16,68.02 C66.95,62.87 62.63,61.35 55.85,60.50 C51.23,59.92 50.21,60.11 48.66,61.82 C43.83,67.17 46.23,94.70 53.12,112.82 ZM 128.09 59.84 C131.40,65.15 133.06,66.93 134.75,66.96 C136.81,67.00 137.00,66.54 137.00,61.65 C137.00,57.58 136.52,55.88 135.00,54.50 C131.09,50.96 133.34,44.00 138.38,44.00 C141.15,44.00 145.00,47.44 145.00,49.90 C145.00,50.91 144.10,52.87 143.00,54.27 C141.59,56.06 141.00,58.33 141.00,61.91 C141.00,69.45 143.48,68.83 149.34,59.83 C153.56,53.33 154.00,52.10 154.00,46.70 C154.00,40.99 153.81,40.55 149.63,36.37 C145.45,32.18 145.01,32.00 139.28,32.00 C132.20,32.00 127.52,34.57 124.69,40.02 C121.84,45.51 122.86,51.44 128.09,59.84 ZM 113.21 232.52 C118.55,237.02 128.17,235.08 131.65,228.81 C135.24,222.33 131.58,213.68 124.20,211.23 C120.66,210.05 119.36,210.02 116.83,211.07 C107.19,215.06 105.36,225.92 113.21,232.52 ZM 136.00 360.00 L 136.00 382.29 L 143.75 381.75 C148.01,381.45 152.77,380.62 154.32,379.91 C159.96,377.32 161.75,369.15 157.72,364.46 C155.21,361.54 149.89,360.12 141.25,360.04 ZM 150.20 238.80 C151.91,240.51 152.23,240.39 156.00,236.50 C159.19,233.20 159.77,233.00 165.92,233.00 L 172.45 233.00 L 178.22 226.93 C182.37,222.57 184.00,221.39 184.00,222.73 C184.00,224.89 185.82,227.00 187.67,227.00 C189.40,227.00 192.00,221.75 192.00,218.27 C192.00,212.63 186.54,208.54 179.87,209.18 C177.26,209.43 176.43,210.01 176.18,211.75 C175.99,213.11 176.49,214.25 177.43,214.61 C179.70,215.48 179.46,216.17 174.82,221.87 L 170.65 227.00 L 163.62 227.00 C156.86,227.00 156.44,227.14 152.79,230.70 C148.86,234.55 148.15,236.75 150.20,238.80 ZM 93.92 254.08 C96.21,256.36 97.75,257.00 100.96,257.00 C107.82,257.00 112.00,252.55 112.00,245.25 C112.00,241.58 105.98,236.00 102.03,236.00 C95.38,236.00 91.00,240.26 91.00,246.73 C91.00,250.29 91.57,251.73 93.92,254.08 ZM 111.28 149.08 C107.03,150.70 103.95,150.11 100.92,147.08 C95.80,141.95 97.18,134.07 103.68,131.36 C110.88,128.35 117.00,132.58 117.00,140.56 C117.00,145.15 115.42,147.51 111.28,149.08 ZM 178.12 146.86 C175.76,149.59 170.36,150.52 167.05,148.78 C163.65,146.99 160.65,141.55 161.40,138.53 C161.74,137.19 163.06,134.87 164.35,133.38 C166.28,131.13 167.50,130.67 171.46,130.67 C175.33,130.67 176.60,131.13 178.12,133.08 C181.79,137.79 181.79,142.63 178.12,146.86 ZM 132.02 261.72 C135.38,263.42 137.66,263.31 141.05,261.31 C149.40,256.38 145.85,243.95 136.12,244.03 C132.14,244.07 129.94,245.36 128.16,248.68 C125.74,253.24 127.58,259.47 132.02,261.72 ZM 182.21 244.90 L 181.91 253.27 L 185.16 252.62 C189.32,251.79 189.65,251.14 189.85,243.69 C190.06,235.91 189.12,234.22 185.31,235.56 C182.57,236.52 182.49,236.75 182.21,244.90 ZM 153.00 254.08 C153.00,260.41 153.18,261.00 155.07,261.00 C159.32,261.00 161.00,259.19 161.00,254.59 C161.00,252.20 160.72,248.84 160.38,247.12 C159.86,244.53 159.28,244.00 156.98,244.00 C153.53,244.00 153.00,245.34 153.00,254.08 ZM 168.21 249.75 C168.05,254.29 168.10,258.00 168.31,258.00 C168.53,258.00 170.06,257.53 171.72,256.95 C174.42,256.01 174.80,255.35 175.34,250.70 C176.25,242.93 175.42,240.83 171.62,241.20 L 168.50 241.50 ZM 164.42 26.82 C160.68,31.19 159.20,31.80 157.20,29.80 C155.31,27.91 155.76,26.40 159.37,22.57 C161.57,20.23 163.65,19.00 165.37,19.00 C169.11,19.00 168.78,21.73 164.42,26.82 ZM 111.07 44.96 C107.44,46.91 101.88,45.51 100.11,42.21 C98.70,39.57 100.52,38.00 104.98,38.00 C111.32,38.00 115.38,42.65 111.07,44.96 ZM 121.82 27.66 C121.35,31.61 119.62,31.56 115.07,27.44 C110.17,23.02 109.46,19.00 113.58,19.00 C117.27,19.00 122.23,24.21 121.82,27.66 ZM 176.80 43.72 C174.74,45.38 169.66,46.06 167.75,44.93 C163.12,42.20 167.75,37.55 174.44,38.20 C177.79,38.53 179.19,41.80 176.80,43.72 ZM 123.39 224.75 C121.70,227.43 119.11,227.47 118.11,224.82 C116.32,220.08 120.76,217.07 123.39,221.25 C124.19,222.52 124.19,223.48 123.39,224.75 ZM 103.82 246.74 C103.59,248.68 102.86,249.59 101.34,249.81 C98.50,250.21 97.13,246.44 99.32,244.25 C101.59,241.98 104.20,243.42 103.82,246.74 ZM 137.42 256.39 C135.22,257.24 135.19,257.22 134.07,255.14 C132.75,252.66 134.87,249.63 137.28,250.55 C139.44,251.38 139.54,255.58 137.42,256.39 Z" fill="rgb(6,86,62)"/>
<path d="M 141.82 293.55 C141.72,283.35 141.61,273.99 141.57,272.76 C141.51,270.76 142.15,270.43 147.50,269.73 C157.07,268.48 185.04,262.90 189.33,261.38 C191.49,260.62 193.58,260.00 193.98,260.00 C194.38,260.00 195.28,263.97 195.97,268.82 C197.46,279.16 196.25,291.97 193.50,295.00 C191.61,297.09 183.79,300.97 176.48,303.46 C170.96,305.33 151.51,310.36 145.75,311.41 L 142.00 312.09 ZM 125.00 310.05 C100.97,304.37 86.74,298.73 83.55,293.62 C81.78,290.79 81.01,276.96 82.20,269.50 C82.73,266.20 83.22,262.71 83.30,261.75 C83.37,260.79 83.70,260.00 84.04,260.00 C84.37,260.00 92.26,261.81 101.57,264.01 C110.88,266.22 121.65,268.48 125.50,269.04 C130.20,269.71 132.82,269.72 134.27,271.02 C136.08,272.66 136.06,276.33 136.02,285.90 C136.01,287.60 136.00,289.48 136.00,291.57 C136.00,293.71 136.01,295.64 136.02,297.37 C136.07,306.58 136.09,310.31 134.40,311.39 C133.25,312.13 131.31,311.64 128.03,310.80 C127.12,310.57 126.12,310.31 125.00,310.05 ZM 220.59 112.16 C219.23,109.55 219.22,108.70 220.51,104.85 C224.15,93.92 226.46,69.02 223.97,67.48 C222.49,66.57 209.71,73.28 201.90,79.08 C198.24,81.78 194.96,84.00 194.61,84.00 C193.17,84.00 186.00,78.66 186.04,77.62 C186.12,75.05 207.13,63.98 216.59,61.52 C228.62,58.38 230.99,60.09 231.78,72.47 C232.53,84.20 226.56,113.65 223.21,114.76 C222.61,114.96 221.43,113.79 220.59,112.16 ZM 53.12 112.82 C46.23,94.70 43.83,67.17 48.66,61.82 C50.21,60.11 51.23,59.92 55.85,60.50 C62.63,61.35 66.95,62.87 77.16,68.02 C85.46,72.21 92.00,76.61 92.00,78.02 C92.00,78.46 89.93,80.03 87.39,81.51 L 82.78 84.21 L 79.66 81.91 C68.80,73.88 55.62,66.50 53.96,67.52 C51.96,68.76 52.90,87.59 55.52,98.67 C58.07,109.48 58.07,111.87 55.48,114.02 C54.30,114.99 53.86,114.77 53.12,112.82 ZM 128.09 59.84 C122.86,51.44 121.84,45.51 124.69,40.02 C127.52,34.57 132.20,32.00 139.28,32.00 C145.01,32.00 145.45,32.18 149.63,36.37 C153.81,40.55 154.00,40.99 154.00,46.70 C154.00,52.10 153.56,53.33 149.34,59.83 C143.48,68.83 141.00,69.45 141.00,61.91 C141.00,58.33 141.59,56.06 143.00,54.27 C144.10,52.87 145.00,50.91 145.00,49.90 C145.00,47.44 141.15,44.00 138.38,44.00 C133.34,44.00 131.09,50.96 135.00,54.50 C136.52,55.88 137.00,57.58 137.00,61.65 C137.00,66.54 136.81,67.00 134.75,66.96 C133.06,66.93 131.40,65.15 128.09,59.84 ZM 113.21 232.52 C105.36,225.92 107.19,215.06 116.83,211.07 C119.36,210.02 120.66,210.05 124.20,211.23 C131.58,213.68 135.24,222.33 131.65,228.81 C128.17,235.08 118.55,237.02 113.21,232.52 ZM 150.20 238.80 C148.15,236.75 148.86,234.55 152.79,230.70 C156.44,227.14 156.86,227.00 163.62,227.00 L 170.65 227.00 L 174.82 221.87 C179.46,216.17 179.70,215.48 177.43,214.61 C176.49,214.25 175.99,213.11 176.18,211.75 C176.43,210.01 177.26,209.43 179.87,209.18 C186.54,208.54 192.00,212.63 192.00,218.27 C192.00,221.75 189.40,227.00 187.67,227.00 C185.82,227.00 184.00,224.89 184.00,222.73 C184.00,221.39 182.37,222.57 178.22,226.93 L 172.45 233.00 L 165.92 233.00 C159.77,233.00 159.19,233.20 156.00,236.50 C152.23,240.39 151.91,240.51 150.20,238.80 ZM 93.92 254.08 C91.57,251.73 91.00,250.29 91.00,246.73 C91.00,240.26 95.38,236.00 102.03,236.00 C105.98,236.00 112.00,241.58 112.00,245.25 C112.00,252.55 107.82,257.00 100.96,257.00 C97.75,257.00 96.21,256.36 93.92,254.08 ZM 132.02 261.72 C127.58,259.47 125.74,253.24 128.16,248.68 C129.94,245.36 132.14,244.07 136.12,244.03 C145.85,243.95 149.40,256.38 141.05,261.31 C137.66,263.31 135.38,263.42 132.02,261.72 ZM 182.21 244.90 C182.49,236.75 182.57,236.52 185.31,235.56 C189.12,234.22 190.06,235.91 189.85,243.69 C189.65,251.14 189.32,251.79 185.16,252.62 L 181.91 253.27 ZM 153.00 254.08 C153.00,245.34 153.53,244.00 156.98,244.00 C159.28,244.00 159.86,244.53 160.38,247.12 C160.72,248.84 161.00,252.20 161.00,254.59 C161.00,259.19 159.32,261.00 155.07,261.00 C153.18,261.00 153.00,260.41 153.00,254.08 ZM 168.21 249.75 L 168.50 241.50 L 171.62 241.20 C175.42,240.83 176.25,242.93 175.34,250.70 C174.80,255.35 174.42,256.01 171.72,256.95 C170.06,257.53 168.53,258.00 168.31,258.00 C168.10,258.00 168.05,254.29 168.21,249.75 ZM 123.39 224.75 C124.19,223.48 124.19,222.52 123.39,221.25 C120.76,217.07 116.32,220.08 118.11,224.82 C119.11,227.47 121.70,227.43 123.39,224.75 ZM 103.82 246.74 C104.20,243.42 101.59,241.98 99.32,244.25 C97.13,246.44 98.50,250.21 101.34,249.81 C102.86,249.59 103.59,248.68 103.82,246.74 ZM 137.42 256.39 C139.54,255.58 139.44,251.38 137.28,250.55 C134.87,249.63 132.75,252.66 134.07,255.14 C135.19,257.22 135.22,257.24 137.42,256.39 ZM 80.52 317.89 C88.97,317.85 96.54,317.68 100.36,317.35 C108.09,316.70 108.89,316.14 101.17,313.20 C102.03,313.49 102.89,313.76 103.75,314.02 C107.74,315.22 111.00,316.60 111.00,317.10 C111.00,317.66 96.30,317.91 80.52,317.89 ZM 82.46 304.43 C79.99,302.76 78.05,301.11 77.04,299.71 C76.50,298.96 75.75,297.48 75.06,295.88 C76.12,297.99 77.63,300.24 78.97,301.61 C79.84,302.50 81.03,303.46 82.46,304.43 ZM 95.62 311.16 C91.47,309.59 87.28,307.48 83.87,305.34 C87.07,307.34 91.18,309.37 95.62,311.16 ZM 72.09 289.35 C71.08,288.31 69.52,287.65 66.45,286.50 C69.55,287.66 71.10,288.30 72.09,289.35 Z" fill="rgb(62,142,100)"/>
<path d="M 122.97 197.90 C108.92,196.54 94.95,192.63 82.54,186.93 C82.62,186.94 82.69,186.95 82.75,186.95 C84.56,187.02 84.29,183.24 82.00,176.74 C79.33,169.15 79.48,163.27 82.59,152.69 C86.30,140.08 84.94,136.86 76.84,139.04 C72.06,140.33 65.56,145.99 62.93,151.14 C58.02,160.76 62.60,174.16 72.66,181.82 C61.32,175.24 51.94,167.12 45.98,158.21 C41.39,151.33 42.07,147.38 49.62,137.01 C52.86,132.57 57.56,125.57 60.08,121.45 C73.47,99.59 86.61,87.95 106.17,80.67 C118.91,75.92 128.09,74.62 144.22,75.28 C164.37,76.10 179.61,81.38 193.75,92.44 C202.58,99.35 208.13,105.96 216.48,119.50 C220.22,125.55 225.18,132.98 227.53,136.00 C232.53,142.46 235.00,147.09 235.00,149.98 C235.00,157.02 222.92,171.17 209.50,179.85 C208.71,180.36 207.89,180.87 207.04,181.37 C208.27,180.56 208.92,180.04 208.65,180.03 C208.18,180.01 209.25,178.35 211.02,176.32 C217.99,168.39 219.43,157.82 214.66,149.69 C208.96,139.95 195.15,134.59 193.42,141.45 C193.07,142.84 193.96,147.82 195.51,153.18 C198.63,163.93 198.48,171.79 195.04,178.46 C192.71,182.99 192.44,185.61 194.25,186.34 C194.97,186.63 195.56,186.80 196.21,186.80 C183.03,192.46 166.70,196.66 151.67,197.99 C139.15,199.10 135.22,199.09 122.97,197.90 ZM 124.00 193.57 C130.11,195.27 145.35,195.28 151.66,193.60 C176.22,187.06 181.06,169.14 163.41,150.08 C145.93,131.20 120.67,135.40 108.63,159.20 C103.89,168.57 103.02,175.16 105.79,180.56 C109.11,187.05 114.59,190.96 124.00,193.57 ZM 63.10 275.95 C53.88,271.68 47.02,265.43 43.22,257.84 C39.03,249.45 38.35,243.32 40.45,232.95 C43.03,220.20 48.81,210.28 61.07,197.56 L 68.83 189.50 L 76.32 193.25 C80.44,195.31 84.19,197.01 84.65,197.02 C85.12,197.02 86.13,197.43 86.91,197.92 C88.06,198.65 87.56,200.26 84.22,206.68 C80.21,214.39 76.00,227.23 76.00,231.73 C76.00,234.42 75.34,234.52 71.12,232.41 C68.59,231.15 67.62,231.07 66.46,232.03 C65.66,232.70 65.00,233.80 65.00,234.47 C65.00,237.07 70.87,243.64 74.76,245.39 C80.19,247.84 80.56,250.04 76.88,257.76 C74.68,262.37 73.68,266.19 73.27,271.56 C72.61,280.28 72.54,280.31 63.10,275.95 ZM 205.78 272.25 C205.49,268.25 204.17,262.73 202.55,258.69 C199.72,251.65 199.70,247.00 202.50,247.00 C204.78,247.00 212.76,238.82 213.55,235.68 C214.57,231.61 212.90,230.40 208.96,232.37 C207.20,233.25 205.43,233.76 205.02,233.51 C204.61,233.26 204.04,230.46 203.75,227.28 C203.10,220.24 199.10,208.51 195.59,203.34 C194.16,201.25 193.01,199.08 193.01,198.52 C193.02,197.96 196.73,195.79 201.26,193.69 L 209.50 189.89 L 216.30 196.99 C235.76,217.31 243.33,240.17 236.05,256.61 C233.24,262.98 224.55,271.19 216.18,275.41 C212.26,277.38 208.42,279.00 207.66,279.00 C206.66,279.00 206.13,277.11 205.78,272.25 ZM 42.75 316.91 C36.11,315.35 29.14,311.17 26.49,307.16 C18.87,295.65 21.71,280.93 33.03,273.22 C38.64,269.41 40.12,269.48 44.64,273.77 C49.46,278.35 58.03,283.36 66.45,286.50 C69.52,287.65 71.08,288.31 72.09,289.35 C72.92,290.24 73.36,291.41 74.02,293.43 C74.26,294.18 74.62,295.02 75.06,295.88 C75.75,297.48 76.50,298.96 77.04,299.71 C78.05,301.11 79.99,302.76 82.46,304.43 C82.91,304.73 83.38,305.04 83.87,305.34 L 83.87 305.34 C87.28,307.48 91.47,309.59 95.62,311.16 C97.43,311.89 99.29,312.57 101.17,313.20 C108.89,316.14 108.09,316.70 100.36,317.35 C96.54,317.68 88.97,317.85 80.52,317.89 C63.56,317.87 45.34,317.53 42.75,316.91 ZM 170.00 317.14 C170.00,316.61 173.49,315.00 177.75,313.57 C188.62,309.92 199.04,304.04 201.77,300.01 C203.01,298.17 204.30,294.95 204.64,292.87 C205.16,289.60 205.74,288.91 208.87,287.89 C217.00,285.23 226.85,279.78 232.31,274.91 L 238.11 269.74 L 242.08 271.53 C247.27,273.88 253.57,280.80 254.92,285.65 C257.56,295.17 255.13,305.02 248.79,310.45 C241.04,317.08 239.21,317.37 202.75,317.77 C181.79,318.00 170.00,317.77 170.00,317.14 ZM 111.28 149.08 C115.42,147.51 117.00,145.15 117.00,140.56 C117.00,132.58 110.88,128.35 103.68,131.36 C97.18,134.07 95.80,141.95 100.92,147.08 C103.95,150.11 107.03,150.70 111.28,149.08 ZM 178.12 146.86 C181.79,142.63 181.79,137.79 178.12,133.08 C176.60,131.13 175.33,130.67 171.46,130.67 C167.50,130.67 166.28,131.13 164.35,133.38 C163.06,134.87 161.74,137.19 161.40,138.53 C160.65,141.55 163.65,146.99 167.05,148.78 C170.36,150.52 175.76,149.59 178.12,146.86 ZM 158.13 119.24 C159.27,121.38 159.43,121.38 167.84,119.47 C177.06,117.37 181.00,114.86 181.00,111.09 C181.00,106.94 177.00,104.00 171.34,104.00 C167.61,104.00 166.30,104.60 162.59,108.02 C158.08,112.18 156.49,116.18 158.13,119.24 ZM 108.42 119.07 C116.93,121.62 119.41,121.27 119.84,117.50 C120.84,108.76 109.18,101.23 100.66,105.11 C95.76,107.34 95.45,113.57 100.12,116.06 C101.34,116.72 105.08,118.07 108.42,119.07 Z" fill="rgb(202,111,64)"/>
<path d="M 0.00 216.50 L 0.00 0.00 L 137.00 0.00 L 274.00 0.00 L 274.00 174.00 L 274.00 348.00 L 247.09 348.00 L 220.19 348.00 L 219.51 352.95 C219.13,355.68 219.12,358.38 219.47,358.95 C219.85,359.57 224.22,360.00 230.06,360.00 L 240.00 360.00 L 240.00 388.42 L 240.00 416.84 L 247.59 417.17 C251.76,417.35 255.36,417.31 255.59,417.08 C255.81,416.85 256.00,403.92 256.00,388.33 L 256.00 360.00 L 265.00 360.00 L 274.00 360.00 L 274.00 396.50 L 274.00 433.00 L 137.00 433.00 L 0.00 433.00 L 0.00 216.50 ZM 21.00 402.50 C21.00,393.98 21.34,387.03 21.75,387.07 C22.16,387.11 28.15,393.75 35.05,401.82 L 47.60 416.50 L 55.45 416.79 C59.77,416.96 63.69,416.71 64.16,416.24 C64.63,415.77 58.67,407.77 50.92,398.45 C43.17,389.13 36.61,380.96 36.33,380.30 C36.05,379.63 41.37,372.74 48.15,364.99 C54.94,357.23 60.85,350.23 61.29,349.44 C61.96,348.24 60.79,348.00 54.23,348.00 L 46.36 348.00 L 34.56 362.25 C28.07,370.09 22.37,376.65 21.88,376.83 C21.40,377.02 21.00,370.38 21.00,362.08 L 21.00 347.00 L 13.00 347.00 L 5.00 347.00 L 5.00 381.83 C5.00,400.99 5.30,416.97 5.67,417.33 C6.03,417.70 9.63,418.00 13.67,418.00 L 21.00 418.00 L 21.00 402.50 ZM 99.00 382.50 L 99.00 348.00 L 91.50 348.00 L 84.00 348.00 L 84.00 382.50 L 84.00 417.00 L 91.50 417.00 L 99.00 417.00 L 99.00 382.50 ZM 135.51 414.96 C135.87,413.83 136.03,408.77 135.87,403.71 L 135.57 394.50 L 147.04 393.90 C159.85,393.24 162.99,392.30 167.87,387.69 C174.94,381.01 176.75,371.74 172.96,361.63 C170.79,355.82 167.16,352.31 161.00,350.05 C158.84,349.26 150.15,348.57 138.25,348.25 L 119.00 347.74 L 119.00 382.37 L 119.00 417.00 L 126.93 417.00 C134.05,417.00 134.93,416.79 135.51,414.96 ZM 205.42 414.75 C205.37,413.79 205.26,398.38 205.17,380.50 L 205.00 348.00 L 196.84 348.00 L 188.68 348.00 L 189.34 370.66 C189.70,383.13 190.00,398.67 190.00,405.20 L 190.00 417.08 L 197.75 416.79 C204.39,416.54 205.49,416.25 205.42,414.75 ZM 230.50 325.96 C245.10,323.88 253.99,319.19 259.42,310.69 C269.35,295.17 264.33,274.85 248.34,265.83 C245.40,264.17 243.00,262.46 243.00,262.03 C243.00,261.60 243.62,259.50 244.38,257.35 C248.40,245.94 246.95,230.74 240.53,217.23 C235.86,207.39 231.99,201.95 223.24,192.92 L 215.89 185.35 L 220.04 182.48 C230.30,175.36 241.25,160.39 242.70,151.48 C243.41,147.11 239.55,138.75 232.96,130.36 L 227.92 123.94 L 230.37 118.22 C234.09,109.54 235.91,102.92 237.52,92.23 C240.29,73.86 238.77,59.05 233.75,55.54 C230.84,53.50 220.01,53.52 212.93,55.58 C206.81,57.36 191.49,65.24 183.08,70.93 L 177.50 74.71 L 172.15 72.88 C169.21,71.88 163.25,70.29 158.90,69.36 C151.50,67.77 149.27,66.19 152.02,64.49 C152.58,64.14 154.20,61.56 155.63,58.74 C162.37,45.45 158.15,32.92 145.44,28.53 L 141.50 27.17 L 141.50 16.84 L 141.50 6.50 L 139.00 6.50 C136.54,6.50 136.50,6.63 136.50,14.50 C136.50,18.90 136.85,23.46 137.28,24.64 C137.98,26.54 137.48,26.99 132.85,28.64 C118.84,33.64 115.23,46.39 123.76,60.69 C125.99,64.44 127.73,67.59 127.63,67.70 C127.53,67.80 123.91,68.62 119.58,69.51 C115.26,70.41 109.47,72.03 106.71,73.11 L 101.70 75.09 L 99.10 72.71 C97.67,71.40 94.46,69.17 91.97,67.75 C73.15,57.05 64.67,54.00 53.66,54.00 C46.56,54.00 46.05,54.15 43.63,57.03 C40.23,61.07 39.47,65.30 39.67,79.00 C39.87,91.77 42.80,105.98 47.40,116.37 C48.83,119.61 50.00,122.64 50.00,123.12 C50.00,123.60 47.24,127.70 43.86,132.24 C36.38,142.30 34.63,146.20 35.31,151.28 C36.33,158.91 40.57,165.33 51.54,175.90 L 62.04 186.01 L 56.19 191.76 C45.22,202.52 36.95,215.53 33.43,227.55 C30.42,237.80 31.18,250.92 35.35,261.00 C35.79,262.06 34.46,263.39 30.87,265.50 C23.73,269.71 17.35,277.08 15.51,283.28 C9.76,302.63 20.90,320.82 41.00,324.87 C44.03,325.48 47.40,326.16 48.50,326.37 C53.14,327.29 223.91,326.90 230.50,325.96 ZM 111.07 44.96 C115.38,42.65 111.32,38.00 104.98,38.00 C100.52,38.00 98.70,39.57 100.11,42.21 C101.88,45.51 107.44,46.91 111.07,44.96 ZM 176.80 43.72 C179.19,41.80 177.79,38.53 174.44,38.20 C167.75,37.55 163.12,42.20 167.75,44.93 C169.66,46.06 174.74,45.38 176.80,43.72 ZM 121.82 27.66 C122.23,24.21 117.27,19.00 113.58,19.00 C109.46,19.00 110.17,23.02 115.07,27.44 C119.62,31.56 121.35,31.61 121.82,27.66 ZM 164.42 26.82 C168.78,21.73 169.11,19.00 165.37,19.00 C163.65,19.00 161.57,20.23 159.37,22.57 C155.76,26.40 155.31,27.91 157.20,29.80 C159.20,31.80 160.68,31.19 164.42,26.82 ZM 136.00 371.14 L 136.00 360.00 L 141.25 360.04 C149.89,360.12 155.21,361.54 157.72,364.46 C161.75,369.15 159.96,377.32 154.32,379.91 C152.77,380.62 148.01,381.45 143.75,381.75 L 136.00 382.29 L 136.00 371.14 ZM 124.00 193.57 C114.59,190.96 109.11,187.05 105.79,180.56 C103.02,175.16 103.89,168.57 108.63,159.20 C120.67,135.40 145.93,131.20 163.41,150.08 C181.06,169.14 176.22,187.06 151.66,193.60 C145.35,195.28 130.11,195.27 124.00,193.57 ZM 155.70 180.04 C159.56,177.69 162.43,173.57 161.64,171.51 C160.79,169.29 158.18,169.67 154.82,172.50 C152.75,174.24 150.65,175.00 147.92,175.00 L 144.00 175.00 L 144.04 170.75 C144.07,167.07 144.51,166.23 147.29,164.48 C151.78,161.66 153.17,156.05 150.33,152.23 C148.48,149.76 147.61,149.47 141.01,149.20 C134.63,148.94 133.44,149.18 131.36,151.13 C127.70,154.57 128.14,159.46 132.50,163.56 C135.39,166.29 136.00,167.58 136.00,170.93 C136.00,174.98 135.98,175.00 132.17,175.00 C129.39,175.00 127.71,174.32 126.00,172.50 C123.05,169.36 119.44,169.20 118.67,172.17 C118.24,173.78 119.08,175.32 121.93,178.17 L 125.76 182.00 L 139.13 182.00 C150.62,181.99 152.95,181.72 155.70,180.04 ZM 76.93 184.53 C63.97,177.78 57.37,162.03 62.93,151.14 C65.56,145.99 72.06,140.33 76.84,139.04 C84.94,136.86 86.30,140.08 82.59,152.69 C79.48,163.27 79.33,169.15 82.00,176.74 C84.29,183.24 84.56,187.02 82.75,186.95 C82.06,186.93 79.44,185.84 76.93,184.53 ZM 194.25 186.34 C192.44,185.61 192.71,182.99 195.04,178.46 C198.48,171.79 198.63,163.93 195.51,153.18 C193.96,147.82 193.07,142.84 193.42,141.45 C195.15,134.59 208.96,139.95 214.66,149.69 C219.43,157.82 217.99,168.39 211.02,176.32 C209.25,178.35 208.18,180.01 208.65,180.03 C209.12,180.05 206.80,181.62 203.50,183.52 C197.48,186.99 196.56,187.27 194.25,186.34 ZM 108.42 119.07 C105.08,118.07 101.34,116.72 100.12,116.06 C95.45,113.57 95.76,107.34 100.66,105.11 C109.18,101.23 120.84,108.76 119.84,117.50 C119.41,121.27 116.93,121.62 108.42,119.07 ZM 158.13 119.24 C156.49,116.18 158.08,112.18 162.59,108.02 C166.30,104.60 167.61,104.00 171.34,104.00 C177.00,104.00 181.00,106.94 181.00,111.09 C181.00,114.86 177.06,117.37 167.84,119.47 C159.43,121.38 159.27,121.38 158.13,119.24 Z" fill="rgb(241,242,240)"/>
</g>
</svg>